<svg width="32" height="32" viewBox="0 0 22 22" fill="none" xmlns="http://www.w3.org/2000/svg"><path id="Union" fill-rule="evenodd" clip-rule="evenodd" d="M5.25788 3.47749C2.99598 5.20667 1.53689 7.93291 1.53689 10.9999C1.53689 16.2262 5.77364 20.463 10.9999 20.463C16.2262 20.463 20.463 16.2262 20.463 10.9999C20.463 7.93291 19.0039 5.20667 16.742 3.47749H5.25788ZM18.4112 3.47749C20.3549 5.39268 21.5599 8.05559 21.5599 10.9999C21.5599 16.8321 16.8321 21.5599 10.9999 21.5599C5.16781 21.5599 0.439941 16.8321 0.439941 10.9999C0.439941 5.85559 4.11846 1.5704 8.98863 0.631253C9.64227 0.503229 10.3165 0.436279 11.0056 0.436279C12.0346 0.436279 13.0303 0.585543 13.9739 0.864505C15.5727 1.33287 17.0143 2.16926 18.2007 3.27573C18.2727 3.34201 18.3438 3.40927 18.4141 3.47749H18.4112ZM11 11.8336C11.4604 11.8336 11.8336 11.4604 11.8336 11C11.8336 10.5395 11.4604 10.1663 11 10.1663C10.5395 10.1663 10.1663 10.5395 10.1663 11C10.1663 11.4604 10.5395 11.8336 11 11.8336ZM11 12.3894C11.7673 12.3894 12.3894 11.7673 12.3894 11C12.3894 10.2326 11.7673 9.61048 11 9.61048C10.2326 9.61048 9.61048 10.2326 9.61048 11C9.61048 11.7673 10.2326 12.3894 11 12.3894ZM16.5578 11C16.5578 11.4604 16.1846 11.8336 15.7242 11.8336C15.2637 11.8336 14.8905 11.4604 14.8905 11C14.8905 10.5395 15.2637 10.1663 15.7242 10.1663C16.1846 10.1663 16.5578 10.5395 16.5578 11ZM17.1136 11C17.1136 11.7673 16.4915 12.3894 15.7242 12.3894C14.9568 12.3894 14.3347 11.7673 14.3347 11C14.3347 10.2326 14.9568 9.61048 15.7242 9.61048C16.4915 9.61048 17.1136 10.2326 17.1136 11ZM8.77678 16.002C9.23721 16.002 9.61047 15.6288 9.61047 15.1684C9.61047 14.7079 9.23721 14.3347 8.77678 14.3347C8.31635 14.3347 7.9431 14.7079 7.9431 15.1684C7.9431 15.1971 7.94456 15.2256 7.9474 15.2536C7.9901 15.674 8.34513 16.002 8.77678 16.002ZM8.77678 16.5578C9.54417 16.5578 10.1663 15.9357 10.1663 15.1684C10.1663 14.401 9.54417 13.7789 8.77678 13.7789C8.0094 13.7789 7.38731 14.401 7.38731 15.1684C7.38731 15.2163 7.38974 15.2637 7.39448 15.3104C7.46564 16.0111 8.05736 16.5578 8.77678 16.5578ZM14.3304 15.2536C14.2877 15.674 13.9326 16.002 13.501 16.002C13.0406 16.002 12.6673 15.6288 12.6673 15.1684C12.6673 14.7079 13.0406 14.3347 13.501 14.3347C13.9614 14.3347 14.3347 14.7079 14.3347 15.1684C14.3347 15.1971 14.3332 15.2256 14.3304 15.2536ZM14.8833 15.3104C14.8121 16.0111 14.2204 16.5578 13.501 16.5578C12.7336 16.5578 12.1115 15.9357 12.1115 15.1684C12.1115 14.401 12.7336 13.7789 13.501 13.7789C14.2684 13.7789 14.8905 14.401 14.8905 15.1684C14.8905 15.2163 14.888 15.2637 14.8833 15.3104ZM13.2231 8.77678C13.6835 8.77678 14.0568 8.40353 14.0568 7.9431C14.0568 7.48267 13.6835 7.10941 13.2231 7.10941C12.7627 7.10941 12.3894 7.48267 12.3894 7.9431C12.3894 8.40353 12.7627 8.77678 13.2231 8.77678ZM13.2231 9.05467C13.837 9.05467 14.3347 8.557 14.3347 7.9431C14.3347 7.32919 13.837 6.83152 13.2231 6.83152C12.6092 6.83152 12.1115 7.32919 12.1115 7.9431C12.1115 8.557 12.6092 9.05467 13.2231 9.05467ZM9.88829 7.9431C9.88829 8.40353 9.51503 8.77678 9.0546 8.77678C8.59417 8.77678 8.22092 8.40353 8.22092 7.9431C8.22092 7.48267 8.59417 7.10941 9.0546 7.10941C9.51503 7.10941 9.88829 7.48267 9.88829 7.9431ZM10.1662 7.9431C10.1662 8.557 9.66851 9.05467 9.0546 9.05467C8.4407 9.05467 7.94303 8.557 7.94303 7.9431C7.94303 7.32919 8.4407 6.83152 9.0546 6.83152C9.66851 6.83152 10.1662 7.32919 10.1662 7.9431ZM11 19.3368C15.6079 19.3368 19.3368 15.6533 19.3368 11.1175C19.3368 8.76628 18.337 6.38669 16.7477 4.88624H5.25223C3.66301 6.38669 2.66315 8.76628 2.66315 11.1175C2.66315 15.6533 6.39207 19.3368 11 19.3368ZM2.38525 11.1175C2.38525 8.65552 3.44679 6.16021 5.14304 4.60835H16.8569C18.5532 6.16021 19.6147 8.65552 19.6147 11.1175C19.6147 15.8104 15.7578 19.6147 11 19.6147C6.2422 19.6147 2.38525 15.8104 2.38525 11.1175ZM18.2253 10.9679C18.2253 14.9771 14.9893 18.2252 11 18.2252C7.01071 18.2252 3.77473 14.9771 3.77473 10.9679C3.77473 8.90386 4.63223 7.0416 6.00935 5.71997H15.9906C17.3678 7.0416 18.2253 8.90386 18.2253 10.9679ZM18.5032 10.9679C18.5032 8.78464 17.5786 6.81825 16.1012 5.44207H5.89878C5.71411 5.6141 5.53807 5.79534 5.3714 5.98508C4.20471 7.31324 3.49684 9.05755 3.49684 10.9679C3.49684 15.1295 6.85612 18.5031 11 18.5031C15.1439 18.5031 18.5032 15.1295 18.5032 10.9679ZM6.27575 11.8336C6.73619 11.8336 7.10944 11.4604 7.10944 11C7.10944 10.5395 6.73619 10.1663 6.27575 10.1663C5.81532 10.1663 5.44207 10.5395 5.44207 11C5.44207 11.4604 5.81532 11.8336 6.27575 11.8336ZM6.27575 12.3894C7.04314 12.3894 7.66523 11.7673 7.66523 11C7.66523 10.2326 7.04314 9.61048 6.27575 9.61048C5.50837 9.61048 4.88628 10.2326 4.88628 11C4.88628 11.7673 5.50837 12.3894 6.27575 12.3894Z" fill="currentColor"></path></svg>