<svg width="32" height="32" viewBox="0 0 22 22" fill="none" xmlns="http://www.w3.org/2000/svg"><g id="Union"><mask id="path-1-inside-1_5953_44746" fill="currentColor"><path fill-rule="evenodd" clip-rule="evenodd" d="M20.664 10.9999C20.664 16.3373 16.3373 20.664 10.9999 20.664C5.66261 20.664 1.33584 16.3373 1.33584 10.9999C1.33584 5.66261 5.66261 1.33584 10.9999 1.33584C16.3373 1.33584 20.664 5.66261 20.664 10.9999ZM21.5599 10.9999C21.5599 16.8321 16.8321 21.5599 10.9999 21.5599C5.16781 21.5599 0.439941 16.8321 0.439941 10.9999C0.439941 5.16781 5.16781 0.439941 10.9999 0.439941C16.8321 0.439941 21.5599 5.16781 21.5599 10.9999ZM18.159 11.0001C18.159 14.9538 14.9538 18.159 11.0001 18.159C7.04632 18.159 3.84117 14.9538 3.84117 11.0001C3.84117 7.04632 7.04632 3.84117 11.0001 3.84117C14.9538 3.84117 18.159 7.04632 18.159 11.0001ZM19.3535 11.0001C19.3535 15.6135 15.6135 19.3535 11.0001 19.3535C6.3866 19.3535 2.64664 15.6135 2.64664 11.0001C2.64664 6.3866 6.3866 2.64664 11.0001 2.64664C15.6135 2.64664 19.3535 6.3866 19.3535 11.0001ZM8.951 10.9998C8.951 11.7833 8.31591 12.4183 7.53249 12.4183C6.74907 12.4183 6.11398 11.7833 6.11398 10.9998C6.11398 10.2164 6.74907 9.58133 7.53249 9.58133C8.31591 9.58133 8.951 10.2164 8.951 10.9998ZM9.59824 11.0002C9.59824 12.1409 8.67346 13.0657 7.53269 13.0657C6.39193 13.0657 5.46715 12.1409 5.46715 11.0002C5.46715 9.85939 6.39193 8.93461 7.53269 8.93461C8.67346 8.93461 9.59824 9.85939 9.59824 11.0002ZM9.89687 11.0002C9.89687 12.3059 8.8384 13.3643 7.53269 13.3643C6.22699 13.3643 5.16852 12.3059 5.16852 11.0002C5.16852 9.69446 6.22699 8.63598 7.53269 8.63598C8.8384 8.63598 9.89687 9.69446 9.89687 11.0002ZM14.4674 13.0657C15.6082 13.0657 16.5329 12.1409 16.5329 11.0002C16.5329 9.85939 15.6082 8.93461 14.4674 8.93461C13.3266 8.93461 12.4018 9.85939 12.4018 11.0002C12.4018 12.1409 13.3266 13.0657 14.4674 13.0657ZM14.4674 13.3643C15.7731 13.3643 16.8316 12.3059 16.8316 11.0002C16.8316 9.69446 15.7731 8.63598 14.4674 8.63598C13.1617 8.63598 12.1032 9.69446 12.1032 11.0002C12.1032 12.3059 13.1617 13.3643 14.4674 13.3643ZM12.3465 8.46832C11.9849 8.77939 11.5144 8.96742 11 8.96742C10.4856 8.96742 10.0151 8.77938 9.65356 8.46828L11 7.12184L12.3465 8.46832ZM10.7803 6.90219L9.43389 8.24865C9.12264 7.88703 8.93449 7.41642 8.93449 6.90188C8.93449 6.38749 9.12252 5.91701 9.4336 5.55544L10.7803 6.90219ZM9.65322 5.33576L11 6.68254L12.3468 5.33572C11.9852 5.02447 11.5146 4.83633 11 4.83633C10.4855 4.83633 10.0148 5.02449 9.65322 5.33576ZM12.5664 5.55539L11.2197 6.90219L12.5662 8.24869C12.8774 7.88707 13.0656 7.41644 13.0656 6.90188C13.0656 6.38746 12.8775 5.91697 12.5664 5.55539ZM13.3642 6.90188C13.3642 8.20758 12.3057 9.26605 11 9.26605C9.69434 9.26605 8.63586 8.20758 8.63586 6.90188C8.63586 5.59617 9.69434 4.5377 11 4.5377C12.3057 4.5377 13.3642 5.59617 13.3642 6.90188ZM12.5656 16.4453C12.8772 16.0836 13.0656 15.6127 13.0656 15.0978C13.0656 14.583 12.8772 14.1122 12.5657 13.7505L11.2182 15.0979L12.5656 16.4453ZM11 13.0323C11.5148 13.0323 11.9856 13.2206 12.3473 13.5321L10.9999 14.8796L9.65258 13.5323C10.0143 13.2207 10.4852 13.0323 11 13.0323ZM9.43426 13.7506L10.7815 15.0979L9.43433 16.4451C9.12282 16.0835 8.93449 15.6126 8.93449 15.0978C8.93449 14.5831 9.12279 14.1123 9.43426 13.7506ZM9.65267 16.6635L10.9999 15.3163L12.3472 16.6636C11.9856 16.9751 11.5148 17.1634 11 17.1634C10.4852 17.1634 10.0144 16.975 9.65267 16.6635ZM11 17.462C12.3057 17.462 13.3642 16.4035 13.3642 15.0978C13.3642 13.7921 12.3057 12.7337 11 12.7337C9.69434 12.7337 8.63586 13.7921 8.63586 15.0978C8.63586 16.4035 9.69434 17.462 11 17.462ZM14.4674 12.4183C15.2508 12.4183 15.8859 11.7833 15.8859 10.9998C15.8859 10.2164 15.2508 9.58133 14.4674 9.58133C13.684 9.58133 13.0489 10.2164 13.0489 10.9998C13.0489 11.7833 13.684 12.4183 14.4674 12.4183Z"></path></mask><path fill-rule="evenodd" clip-rule="evenodd" d="M20.664 10.9999C20.664 16.3373 16.3373 20.664 10.9999 20.664C5.66261 20.664 1.33584 16.3373 1.33584 10.9999C1.33584 5.66261 5.66261 1.33584 10.9999 1.33584C16.3373 1.33584 20.664 5.66261 20.664 10.9999ZM21.5599 10.9999C21.5599 16.8321 16.8321 21.5599 10.9999 21.5599C5.16781 21.5599 0.439941 16.8321 0.439941 10.9999C0.439941 5.16781 5.16781 0.439941 10.9999 0.439941C16.8321 0.439941 21.5599 5.16781 21.5599 10.9999ZM18.159 11.0001C18.159 14.9538 14.9538 18.159 11.0001 18.159C7.04632 18.159 3.84117 14.9538 3.84117 11.0001C3.84117 7.04632 7.04632 3.84117 11.0001 3.84117C14.9538 3.84117 18.159 7.04632 18.159 11.0001ZM19.3535 11.0001C19.3535 15.6135 15.6135 19.3535 11.0001 19.3535C6.3866 19.3535 2.64664 15.6135 2.64664 11.0001C2.64664 6.3866 6.3866 2.64664 11.0001 2.64664C15.6135 2.64664 19.3535 6.3866 19.3535 11.0001ZM8.951 10.9998C8.951 11.7833 8.31591 12.4183 7.53249 12.4183C6.74907 12.4183 6.11398 11.7833 6.11398 10.9998C6.11398 10.2164 6.74907 9.58133 7.53249 9.58133C8.31591 9.58133 8.951 10.2164 8.951 10.9998ZM9.59824 11.0002C9.59824 12.1409 8.67346 13.0657 7.53269 13.0657C6.39193 13.0657 5.46715 12.1409 5.46715 11.0002C5.46715 9.85939 6.39193 8.93461 7.53269 8.93461C8.67346 8.93461 9.59824 9.85939 9.59824 11.0002ZM9.89687 11.0002C9.89687 12.3059 8.8384 13.3643 7.53269 13.3643C6.22699 13.3643 5.16852 12.3059 5.16852 11.0002C5.16852 9.69446 6.22699 8.63598 7.53269 8.63598C8.8384 8.63598 9.89687 9.69446 9.89687 11.0002ZM14.4674 13.0657C15.6082 13.0657 16.5329 12.1409 16.5329 11.0002C16.5329 9.85939 15.6082 8.93461 14.4674 8.93461C13.3266 8.93461 12.4018 9.85939 12.4018 11.0002C12.4018 12.1409 13.3266 13.0657 14.4674 13.0657ZM14.4674 13.3643C15.7731 13.3643 16.8316 12.3059 16.8316 11.0002C16.8316 9.69446 15.7731 8.63598 14.4674 8.63598C13.1617 8.63598 12.1032 9.69446 12.1032 11.0002C12.1032 12.3059 13.1617 13.3643 14.4674 13.3643ZM12.3465 8.46832C11.9849 8.77939 11.5144 8.96742 11 8.96742C10.4856 8.96742 10.0151 8.77938 9.65356 8.46828L11 7.12184L12.3465 8.46832ZM10.7803 6.90219L9.43389 8.24865C9.12264 7.88703 8.93449 7.41642 8.93449 6.90188C8.93449 6.38749 9.12252 5.91701 9.4336 5.55544L10.7803 6.90219ZM9.65322 5.33576L11 6.68254L12.3468 5.33572C11.9852 5.02447 11.5146 4.83633 11 4.83633C10.4855 4.83633 10.0148 5.02449 9.65322 5.33576ZM12.5664 5.55539L11.2197 6.90219L12.5662 8.24869C12.8774 7.88707 13.0656 7.41644 13.0656 6.90188C13.0656 6.38746 12.8775 5.91697 12.5664 5.55539ZM13.3642 6.90188C13.3642 8.20758 12.3057 9.26605 11 9.26605C9.69434 9.26605 8.63586 8.20758 8.63586 6.90188C8.63586 5.59617 9.69434 4.5377 11 4.5377C12.3057 4.5377 13.3642 5.59617 13.3642 6.90188ZM12.5656 16.4453C12.8772 16.0836 13.0656 15.6127 13.0656 15.0978C13.0656 14.583 12.8772 14.1122 12.5657 13.7505L11.2182 15.0979L12.5656 16.4453ZM11 13.0323C11.5148 13.0323 11.9856 13.2206 12.3473 13.5321L10.9999 14.8796L9.65258 13.5323C10.0143 13.2207 10.4852 13.0323 11 13.0323ZM9.43426 13.7506L10.7815 15.0979L9.43433 16.4451C9.12282 16.0835 8.93449 15.6126 8.93449 15.0978C8.93449 14.5831 9.12279 14.1123 9.43426 13.7506ZM9.65267 16.6635L10.9999 15.3163L12.3472 16.6636C11.9856 16.9751 11.5148 17.1634 11 17.1634C10.4852 17.1634 10.0144 16.975 9.65267 16.6635ZM11 17.462C12.3057 17.462 13.3642 16.4035 13.3642 15.0978C13.3642 13.7921 12.3057 12.7337 11 12.7337C9.69434 12.7337 8.63586 13.7921 8.63586 15.0978C8.63586 16.4035 9.69434 17.462 11 17.462ZM14.4674 12.4183C15.2508 12.4183 15.8859 11.7833 15.8859 10.9998C15.8859 10.2164 15.2508 9.58133 14.4674 9.58133C13.684 9.58133 13.0489 10.2164 13.0489 10.9998C13.0489 11.7833 13.684 12.4183 14.4674 12.4183Z" fill="currentColor"></path><path d="M12.3465 8.46832L13.6404 9.97225L15.2614 8.57758L13.7493 7.06547L12.3465 8.46832ZM9.65356 8.46828L8.25071 7.06543L6.73864 8.5775L8.35963 9.97218L9.65356 8.46828ZM11 7.12184L12.4028 5.71899L11 4.31614L9.59715 5.71899L11 7.12184ZM9.43389 8.24865L7.93023 9.54286L9.32495 11.1633L10.8367 9.65149L9.43389 8.24865ZM10.7803 6.90219L12.1832 8.30504L13.586 6.90219L12.1832 5.49934L10.7803 6.90219ZM9.4336 5.55544L10.8364 4.15259L9.32433 2.64048L7.92967 4.26155L9.4336 5.55544ZM11 6.68254L9.59715 8.08538L11 9.48823L12.4028 8.08538L11 6.68254ZM9.65322 5.33576L8.35897 3.83214L6.73863 5.22686L8.25038 6.73861L9.65322 5.33576ZM12.3468 5.33572L13.7497 6.73857L15.2615 5.22678L13.641 3.83207L12.3468 5.33572ZM11.2197 6.90219L9.8168 5.49934L8.41395 6.90219L9.8168 8.30504L11.2197 6.90219ZM12.5664 5.55539L14.0703 4.26146L12.6757 2.64048L11.1636 4.15255L12.5664 5.55539ZM12.5662 8.24869L11.1633 9.65154L12.6751 11.1633L14.0698 9.54294L12.5662 8.24869ZM12.5656 16.4453L11.1628 17.8482L12.6739 19.3593L14.0687 17.7402L12.5656 16.4453ZM12.5657 13.7505L14.0688 12.4557L12.674 10.8364L11.1628 12.3476L12.5657 13.7505ZM11.2182 15.0979L9.81538 13.6951L8.41253 15.0979L9.81538 16.5008L11.2182 15.0979ZM12.3473 13.5321L13.7502 14.935L15.2615 13.4237L13.642 12.0289L12.3473 13.5321ZM10.9999 14.8796L9.59704 16.2824L10.9999 17.6853L12.4027 16.2824L10.9999 14.8796ZM9.65258 13.5323L8.35772 12.0292L6.7386 13.424L8.24973 14.9351L9.65258 13.5323ZM10.7815 15.0979L12.1844 16.5008L13.5872 15.0979L12.1844 13.6951L10.7815 15.0979ZM9.43426 13.7506L10.8371 12.3478L9.32574 10.8364L7.93096 12.456L9.43426 13.7506ZM9.43433 16.4451L7.9311 17.7398L9.32589 19.3593L10.8372 17.848L9.43433 16.4451ZM10.9999 15.3163L12.4027 13.9134L10.9999 12.5106L9.59703 13.9134L10.9999 15.3163ZM9.65267 16.6635L8.24982 15.2606L6.73861 16.7718L8.35788 18.1666L9.65267 16.6635ZM12.3472 16.6636L13.6419 18.1669L15.2615 16.7722L13.7501 15.2608L12.3472 16.6636ZM10.9999 22.648C17.433 22.648 22.648 17.433 22.648 10.9999H18.6801C18.6801 15.2416 15.2416 18.6801 10.9999 18.6801V22.648ZM-0.648086 10.9999C-0.648086 17.433 4.56691 22.648 10.9999 22.648V18.6801C6.7583 18.6801 3.31977 15.2416 3.31977 10.9999H-0.648086ZM10.9999 -0.648086C4.56691 -0.648086 -0.648086 4.56691 -0.648086 10.9999H3.31977C3.31977 6.7583 6.7583 3.31977 10.9999 3.31977V-0.648086ZM22.648 10.9999C22.648 4.56691 17.433 -0.648086 10.9999 -0.648086V3.31977C15.2416 3.31977 18.6801 6.7583 18.6801 10.9999H22.648ZM10.9999 23.5439C17.9278 23.5439 23.5439 17.9278 23.5439 10.9999H19.576C19.576 15.7364 15.7364 19.576 10.9999 19.576V23.5439ZM-1.54399 10.9999C-1.54399 17.9278 4.07212 23.5439 10.9999 23.5439V19.576C6.26351 19.576 2.42387 15.7364 2.42387 10.9999H-1.54399ZM10.9999 -1.54399C4.07212 -1.54399 -1.54399 4.07212 -1.54399 10.9999H2.42387C2.42387 6.26351 6.26351 2.42387 10.9999 2.42387V-1.54399ZM23.5439 10.9999C23.5439 4.07212 17.9278 -1.54399 10.9999 -1.54399V2.42387C15.7364 2.42387 19.576 6.26351 19.576 10.9999H23.5439ZM11.0001 20.1429C16.0495 20.1429 20.1429 16.0495 20.1429 11.0001H16.175C16.175 13.8581 13.8581 16.175 11.0001 16.175V20.1429ZM1.85725 11.0001C1.85725 16.0495 5.95063 20.1429 11.0001 20.1429V16.175C8.14201 16.175 5.8251 13.8581 5.8251 11.0001H1.85725ZM11.0001 1.85725C5.95063 1.85725 1.85725 5.95063 1.85725 11.0001H5.8251C5.8251 8.14201 8.14201 5.8251 11.0001 5.8251V1.85725ZM20.1429 11.0001C20.1429 5.95063 16.0495 1.85725 11.0001 1.85725V5.8251C13.8581 5.8251 16.175 8.14201 16.175 11.0001H20.1429ZM11.0001 21.3374C16.7092 21.3374 21.3374 16.7092 21.3374 11.0001H17.3696C17.3696 14.5179 14.5179 17.3696 11.0001 17.3696V21.3374ZM0.662714 11.0001C0.662714 16.7092 5.29091 21.3374 11.0001 21.3374V17.3696C7.48229 17.3696 4.63057 14.5179 4.63057 11.0001H0.662714ZM11.0001 0.662714C5.29091 0.662714 0.662714 5.29091 0.662714 11.0001H4.63057C4.63057 7.48229 7.48229 4.63057 11.0001 4.63057V0.662714ZM21.3374 11.0001C21.3374 5.29091 16.7092 0.662714 11.0001 0.662714V4.63057C14.5179 4.63057 17.3696 7.48229 17.3696 11.0001H21.3374ZM7.53249 14.4023C9.4116 14.4023 10.9349 12.8789 10.9349 10.9998H6.96707C6.96707 10.6876 7.22022 10.4344 7.53249 10.4344V14.4023ZM4.13006 10.9998C4.13006 12.8789 5.65338 14.4023 7.53249 14.4023V10.4344C7.84477 10.4344 8.09791 10.6876 8.09791 10.9998H4.13006ZM7.53249 7.5974C5.65338 7.5974 4.13006 9.12073 4.13006 10.9998H8.09791C8.09791 11.3121 7.84477 11.5653 7.53249 11.5653V7.5974ZM10.9349 10.9998C10.9349 9.12073 9.4116 7.5974 7.53249 7.5974V11.5653C7.22022 11.5653 6.96707 11.3121 6.96707 10.9998H10.9349ZM7.53269 15.0496C9.76916 15.0496 11.5822 13.2366 11.5822 11.0002H7.61431C7.61431 11.0452 7.57777 11.0818 7.53269 11.0818V15.0496ZM3.48322 11.0002C3.48322 13.2366 5.29623 15.0496 7.53269 15.0496V11.0818C7.48762 11.0818 7.45108 11.0452 7.45108 11.0002H3.48322ZM7.53269 6.95068C5.29623 6.95068 3.48322 8.76369 3.48322 11.0002H7.45108C7.45108 10.9551 7.48762 10.9185 7.53269 10.9185V6.95068ZM11.5822 11.0002C11.5822 8.76369 9.76916 6.95068 7.53269 6.95068V10.9185C7.57777 10.9185 7.61431 10.9551 7.61431 11.0002H11.5822ZM7.53269 15.3483C9.93409 15.3483 11.8808 13.4015 11.8808 11.0002H7.91295C7.91295 11.2102 7.7427 11.3804 7.53269 11.3804V15.3483ZM3.18459 11.0002C3.18459 13.4015 5.1313 15.3483 7.53269 15.3483V11.3804C7.32269 11.3804 7.15244 11.2102 7.15244 11.0002H3.18459ZM7.53269 6.65205C5.1313 6.65205 3.18459 8.59876 3.18459 11.0002H7.15244C7.15244 10.7901 7.32269 10.6199 7.53269 10.6199V6.65205ZM11.8808 11.0002C11.8808 8.59877 9.93409 6.65205 7.53269 6.65205V10.6199C7.7427 10.6199 7.91295 10.7901 7.91295 11.0002H11.8808ZM14.549 11.0002C14.549 11.0452 14.5125 11.0818 14.4674 11.0818V15.0496C16.7038 15.0496 18.5169 13.2366 18.5169 11.0002H14.549ZM14.4674 10.9185C14.5125 10.9185 14.549 10.9551 14.549 11.0002H18.5169C18.5169 8.76369 16.7038 6.95068 14.4674 6.95068V10.9185ZM14.3858 11.0002C14.3858 10.9551 14.4223 10.9185 14.4674 10.9185V6.95068C12.2309 6.95068 10.4179 8.76369 10.4179 11.0002H14.3858ZM14.4674 11.0818C14.4223 11.0818 14.3858 11.0452 14.3858 11.0002H10.4179C10.4179 13.2366 12.2309 15.0496 14.4674 15.0496V11.0818ZM14.8476 11.0002C14.8476 11.2102 14.6774 11.3804 14.4674 11.3804V15.3483C16.8688 15.3483 18.8155 13.4016 18.8155 11.0002H14.8476ZM14.4674 10.6199C14.6774 10.6199 14.8476 10.7901 14.8476 11.0002H18.8155C18.8155 8.59876 16.8688 6.65205 14.4674 6.65205V10.6199ZM14.0871 11.0002C14.0871 10.7901 14.2574 10.6199 14.4674 10.6199V6.65205C12.066 6.65205 10.1193 8.59876 10.1193 11.0002H14.0871ZM14.4674 11.3804C14.2574 11.3804 14.0871 11.2102 14.0871 11.0002H10.1193C10.1193 13.4015 12.066 15.3483 14.4674 15.3483V11.3804ZM11 10.9513C12.007 10.9513 12.9325 10.5813 13.6404 9.97225L11.0526 6.96438C11.0443 6.9715 11.036 6.97612 11.0288 6.97887C11.0225 6.98125 11.0138 6.9835 11 6.9835V10.9513ZM8.35963 9.97218C9.06751 10.5812 9.99306 10.9513 11 10.9513V6.9835C10.9863 6.9835 10.9776 6.98125 10.9713 6.97887C10.964 6.97612 10.9558 6.9715 10.9475 6.96438L8.35963 9.97218ZM9.59715 5.71899L8.25071 7.06543L11.0564 9.87113L12.4028 8.52469L9.59715 5.71899ZM13.7493 7.06547L12.4028 5.71899L9.59715 8.52469L10.9436 9.87116L13.7493 7.06547ZM10.8367 9.65149L12.1832 8.30504L9.3775 5.49934L8.03104 6.8458L10.8367 9.65149ZM6.95057 6.90188C6.95057 7.90913 7.32088 8.8349 7.93023 9.54286L10.9375 6.95444C10.9304 6.94616 10.9258 6.93789 10.923 6.93062C10.9207 6.92431 10.9184 6.91565 10.9184 6.90188H6.95057ZM7.92967 4.26155C7.32065 4.96942 6.95057 5.89494 6.95057 6.90188H10.9184C10.9184 6.8881 10.9207 6.87945 10.923 6.87314C10.9258 6.86587 10.9304 6.8576 10.9375 6.84933L7.92967 4.26155ZM12.1832 5.49934L10.8364 4.15259L8.03075 6.95829L9.3775 8.30504L12.1832 5.49934ZM12.4028 5.27969L11.0561 3.93291L8.25038 6.73861L9.59715 8.08538L12.4028 5.27969ZM10.944 3.93287L9.59715 5.27969L12.4028 8.08538L13.7497 6.73857L10.944 3.93287ZM11 6.82025C11.0138 6.82025 11.0225 6.8225 11.0288 6.82489C11.0361 6.82764 11.0443 6.83225 11.0526 6.83938L13.641 3.83207C12.9331 3.22272 12.0073 2.8524 11 2.8524V6.82025ZM10.9475 6.83938C10.9558 6.83226 10.964 6.82764 10.9713 6.82489C10.9776 6.8225 10.9863 6.82025 11 6.82025V2.8524C9.99275 2.8524 9.06694 3.22275 8.35897 3.83214L10.9475 6.83938ZM12.6225 8.30504L13.9693 6.95824L11.1636 4.15255L9.8168 5.49934L12.6225 8.30504ZM13.969 6.84584L12.6225 5.49934L9.8168 8.30504L11.1633 9.65154L13.969 6.84584ZM11.0817 6.90188C11.0817 6.91565 11.0794 6.92431 11.077 6.93062C11.0743 6.93789 11.0697 6.94616 11.0625 6.95444L14.0698 9.54294C14.6792 8.83498 15.0495 7.90917 15.0495 6.90188H11.0817ZM11.0625 6.84933C11.0697 6.8576 11.0743 6.86587 11.077 6.87314C11.0794 6.87945 11.0817 6.8881 11.0817 6.90188H15.0495C15.0495 5.89489 14.6794 4.96935 14.0703 4.26146L11.0625 6.84933ZM11 11.25C13.4014 11.25 15.3481 9.30327 15.3481 6.90188H11.3803C11.3803 7.11188 11.21 7.28213 11 7.28213V11.25ZM6.65193 6.90188C6.65193 9.30327 8.59865 11.25 11 11.25V7.28213C10.79 7.28213 10.6198 7.11188 10.6198 6.90188H6.65193ZM11 2.55377C8.59865 2.55377 6.65193 4.50048 6.65193 6.90188H10.6198C10.6198 6.69187 10.79 6.52162 11 6.52162V2.55377ZM15.3481 6.90188C15.3481 4.50048 13.4014 2.55377 11 2.55377V6.52162C11.21 6.52162 11.3803 6.69187 11.3803 6.90188H15.3481ZM11.0817 15.0978C11.0817 15.1116 11.0794 15.1203 11.077 15.1266C11.0743 15.1339 11.0696 15.1422 11.0625 15.1504L14.0687 17.7402C14.6787 17.032 15.0495 16.1057 15.0495 15.0978H11.0817ZM11.0625 15.0453C11.0696 15.0535 11.0743 15.0618 11.077 15.0691C11.0794 15.0754 11.0817 15.0841 11.0817 15.0978H15.0495C15.0495 14.09 14.6788 13.1638 14.0688 12.4557L11.0625 15.0453ZM12.6211 16.5008L13.9685 15.1533L11.1628 12.3476L9.81538 13.6951L12.6211 16.5008ZM13.9684 15.0425L12.6211 13.6951L9.81538 16.5008L11.1628 17.8482L13.9684 15.0425ZM13.642 12.0289C12.9339 11.419 12.0078 11.0484 11 11.0484V15.0162C11.0138 15.0162 11.0225 15.0185 11.0288 15.0209C11.0361 15.0236 11.0443 15.0282 11.0526 15.0354L13.642 12.0289ZM12.4027 16.2824L13.7502 14.935L10.9445 12.1293L9.59704 13.4767L12.4027 16.2824ZM8.24973 14.9351L9.59704 16.2824L12.4027 13.4767L11.0554 12.1294L8.24973 14.9351ZM11 11.0484C9.99214 11.0484 9.06585 11.4192 8.35772 12.0292L10.9474 15.0354C10.9557 15.0282 10.964 15.0236 10.9713 15.0209C10.9776 15.0185 10.9863 15.0162 11 15.0162V11.0484ZM12.1844 13.6951L10.8371 12.3478L8.03141 15.1535L9.3787 16.5008L12.1844 13.6951ZM10.8372 17.848L12.1844 16.5008L9.3787 13.6951L8.03149 15.0423L10.8372 17.848ZM6.95057 15.0978C6.95057 16.1056 7.32124 17.0318 7.9311 17.7398L10.9376 15.1504C10.9304 15.1422 10.9258 15.1339 10.9231 15.1266C10.9207 15.1203 10.9184 15.1116 10.9184 15.0978H6.95057ZM7.93096 12.456C7.32118 13.1641 6.95057 14.0902 6.95057 15.0978H10.9184C10.9184 15.0841 10.9207 15.0754 10.9231 15.0691C10.9258 15.0618 10.9304 15.0536 10.9376 15.0453L7.93096 12.456ZM9.59703 13.9134L8.24982 15.2606L11.0555 18.0663L12.4027 16.7191L9.59703 13.9134ZM13.7501 15.2608L12.4027 13.9134L9.59703 16.7191L10.9444 18.0665L13.7501 15.2608ZM11 19.1473C12.0077 19.1473 12.9338 18.7767 13.6419 18.1669L11.0526 15.1603C11.0443 15.1675 11.0361 15.1721 11.0288 15.1748C11.0225 15.1772 11.0138 15.1795 11 15.1795V19.1473ZM8.35788 18.1666C9.06599 18.7766 9.99223 19.1473 11 19.1473V15.1795C10.9863 15.1795 10.9776 15.1772 10.9713 15.1748C10.964 15.1721 10.9557 15.1675 10.9475 15.1603L8.35788 18.1666ZM11.3803 15.0978C11.3803 15.3079 11.21 15.4781 11 15.4781V19.446C13.4014 19.446 15.3481 17.4992 15.3481 15.0978H11.3803ZM11 14.7176C11.21 14.7176 11.3803 14.8878 11.3803 15.0978H15.3481C15.3481 12.6965 13.4014 10.7497 11 10.7497V14.7176ZM10.6198 15.0978C10.6198 14.8878 10.79 14.7176 11 14.7176V10.7497C8.59865 10.7497 6.65193 12.6965 6.65193 15.0978H10.6198ZM11 15.4781C10.79 15.4781 10.6198 15.3079 10.6198 15.0978H6.65193C6.65193 17.4992 8.59865 19.446 11 19.446V15.4781ZM13.902 10.9998C13.902 10.6876 14.1551 10.4344 14.4674 10.4344V14.4023C16.3465 14.4023 17.8698 12.8789 17.8698 10.9998H13.902ZM14.4674 11.5653C14.1551 11.5653 13.902 11.3121 13.902 10.9998H17.8698C17.8698 9.12072 16.3465 7.5974 14.4674 7.5974V11.5653ZM15.0328 10.9998C15.0328 11.3121 14.7797 11.5653 14.4674 11.5653V7.5974C12.5883 7.5974 11.065 9.12072 11.065 10.9998H15.0328ZM14.4674 10.4344C14.7797 10.4344 15.0328 10.6876 15.0328 10.9998H11.065C11.065 12.8789 12.5883 14.4023 14.4674 14.4023V10.4344Z" fill="currentColor" mask="url(#path-1-inside-1_5953_44746)"></path></g></svg>