<svg width="32" height="32" viewBox="0 0 18 23" fill="none" xmlns="http://www.w3.org/2000/svg"><g id="Union"><mask id="path-1-inside-1_5956_44139" fill="currentColor"><path fill-rule="evenodd" clip-rule="evenodd" d="M8.99976 13.1458C12.3619 13.1458 15.0874 10.4722 15.0874 7.17406C15.0874 3.87594 12.3619 1.20229 8.99976 1.20229C5.63766 1.20229 2.91214 3.87594 2.91214 7.17406C2.91214 10.4722 5.63766 13.1458 8.99976 13.1458ZM15.8645 7.17406C15.8645 9.6403 14.513 11.7969 12.497 12.97V13.654H12.8856C15.2462 13.654 17.1598 15.5312 17.1598 17.8469C17.1598 20.1626 15.2462 22.0399 12.8856 22.0399H5.11413C2.75351 22.0399 0.839844 20.1626 0.839844 17.8469C0.839844 15.5312 2.75351 13.654 5.11413 13.654H5.76172V13.1135C3.60314 11.9786 2.135 9.74454 2.135 7.17406C2.135 3.45491 5.20846 0.439941 8.99976 0.439941C12.7911 0.439941 15.8645 3.45491 15.8645 7.17406ZM5.76172 14.4164V14.4164H12.497V14.4164H12.8856C14.817 14.4164 16.3827 15.9523 16.3827 17.8469C16.3827 19.7416 14.817 21.2775 12.8856 21.2775H5.11413C3.18271 21.2775 1.61699 19.7416 1.61699 17.8469C1.61699 15.9523 3.18271 14.4164 5.11413 14.4164H5.76172ZM5.89132 19.2447C6.6782 19.2447 7.31609 18.6189 7.31609 17.847C7.31609 17.0751 6.6782 16.4494 5.89132 16.4494C5.10445 16.4494 4.46656 17.0751 4.46656 17.847C4.46656 18.6189 5.10445 19.2447 5.89132 19.2447ZM5.89117 20.007C7.10725 20.007 8.09308 19.0399 8.09308 17.847C8.09308 16.654 7.10725 15.687 5.89117 15.687C4.67509 15.687 3.68927 16.654 3.68927 17.847C3.68927 19.0399 4.67509 20.007 5.89117 20.007ZM5.89117 20.5152C7.39339 20.5152 8.61117 19.3206 8.61117 17.847C8.61117 16.3733 7.39339 15.1787 5.89117 15.1787C4.38896 15.1787 3.17117 16.3733 3.17117 17.847C3.17117 19.3206 4.38896 20.5152 5.89117 20.5152ZM14.3103 17.847C14.3103 19.0399 13.3245 20.007 12.1084 20.007C10.8924 20.007 9.90653 19.0399 9.90653 17.847C9.90653 16.654 10.8924 15.687 12.1084 15.687C13.3245 15.687 14.3103 16.654 14.3103 17.847ZM14.8284 17.847C14.8284 19.3206 13.6107 20.5152 12.1084 20.5152C10.6062 20.5152 9.38844 19.3206 9.38844 17.847C9.38844 16.3733 10.6062 15.1787 12.1084 15.1787C13.6107 15.1787 14.8284 16.3733 14.8284 17.847ZM13.5331 17.847C13.5331 18.6189 12.8952 19.2447 12.1084 19.2447C11.3215 19.2447 10.6836 18.6189 10.6836 17.847C10.6836 17.0751 11.3215 16.4494 12.1084 16.4494C12.8952 16.4494 13.5331 17.0751 13.5331 17.847ZM13.2742 7.17409C13.2742 9.48978 11.3606 11.367 8.99996 11.367C6.63934 11.367 4.72567 9.48978 4.72567 7.17409C4.72567 4.85839 6.63934 2.98115 8.99996 2.98115C11.3606 2.98115 13.2742 4.85839 13.2742 7.17409ZM13.7923 7.17409C13.7923 9.77048 11.6467 11.8753 8.99996 11.8753C6.3532 11.8753 4.20758 9.77048 4.20758 7.17409C4.20758 4.5777 6.3532 2.47291 8.99996 2.47291C11.6467 2.47291 13.7923 4.5777 13.7923 7.17409ZM7.18654 4.3788C7.90188 4.3788 8.48178 4.94766 8.48178 5.64939C8.48178 6.35111 7.90188 6.91998 7.18654 6.91998C6.4712 6.91998 5.89131 6.35111 5.89131 5.64939C5.89131 4.94766 6.4712 4.3788 7.18654 4.3788ZM7.18654 3.99762C8.11649 3.99762 8.87035 4.73714 8.87035 5.64939C8.87035 6.56163 8.11649 7.30115 7.18654 7.30115C6.2566 7.30115 5.50273 6.56163 5.50273 5.64939C5.50273 4.73714 6.2566 3.99762 7.18654 3.99762ZM12.1085 5.64939C12.1085 4.94766 11.5286 4.3788 10.8133 4.3788C10.0979 4.3788 9.51802 4.94766 9.51802 5.64939C9.51802 6.35111 10.0979 6.91998 10.8133 6.91998C11.5286 6.91998 12.1085 6.35111 12.1085 5.64939ZM12.4971 5.64939C12.4971 4.73714 11.7432 3.99762 10.8133 3.99762C9.88332 3.99762 9.12945 4.73714 9.12945 5.64939C9.12945 6.56163 9.88332 7.30115 10.8133 7.30115C11.7432 7.30115 12.4971 6.56163 12.4971 5.64939ZM8.99984 8.69879C9.57211 8.69879 10.036 9.15388 10.036 9.71526C10.036 10.2766 9.57211 10.7317 8.99984 10.7317C8.42757 10.7317 7.96365 10.2766 7.96365 9.71526C7.96365 9.15388 8.42757 8.69879 8.99984 8.69879ZM8.99984 8.31762C9.78671 8.31762 10.4246 8.94336 10.4246 9.71526C10.4246 10.4872 9.78671 11.1129 8.99984 11.1129C8.21297 11.1129 7.57508 10.4872 7.57508 9.71526C7.57508 8.94336 8.21297 8.31762 8.99984 8.31762ZM7.05696 8.57165C7.05696 8.29096 6.825 8.06342 6.53886 8.06342C6.25273 8.06342 6.02077 8.29096 6.02077 8.57165C6.02077 8.85234 6.25273 9.07989 6.53886 9.07989C6.825 9.07989 7.05696 8.85234 7.05696 8.57165ZM7.316 8.57165C7.316 8.15061 6.96807 7.8093 6.53886 7.8093C6.10966 7.8093 5.76172 8.15061 5.76172 8.57165C5.76172 8.99269 6.10966 9.334 6.53886 9.334C6.96807 9.334 7.316 8.99269 7.316 8.57165ZM11.4607 8.06342C11.7469 8.06342 11.9788 8.29096 11.9788 8.57165C11.9788 8.85234 11.7469 9.07989 11.4607 9.07989C11.1746 9.07989 10.9426 8.85234 10.9426 8.57165C10.9426 8.29096 11.1746 8.06342 11.4607 8.06342ZM11.4607 7.8093C11.8899 7.8093 12.2379 8.15061 12.2379 8.57165C12.2379 8.99269 11.8899 9.334 11.4607 9.334C11.0315 9.334 10.6836 8.99269 10.6836 8.57165C10.6836 8.15061 11.0315 7.8093 11.4607 7.8093ZM10.813 6.14015C11.0891 6.14015 11.313 5.92055 11.313 5.64966C11.313 5.37878 11.0891 5.15918 10.813 5.15918C10.5368 5.15918 10.313 5.37878 10.313 5.64966C10.313 5.92055 10.5368 6.14015 10.813 6.14015ZM7.6867 5.64966C7.6867 5.92055 7.46284 6.14015 7.1867 6.14015C6.91056 6.14015 6.6867 5.92055 6.6867 5.64966C6.6867 5.37878 6.91056 5.15918 7.1867 5.15918C7.46284 5.15918 7.6867 5.37878 7.6867 5.64966ZM9 10.2056C9.27614 10.2056 9.5 9.98598 9.5 9.71509C9.5 9.44421 9.27614 9.22461 9 9.22461C8.72386 9.22461 8.5 9.44421 8.5 9.71509C8.5 9.98598 8.72386 10.2056 9 10.2056Z"></path></mask><path fill-rule="evenodd" clip-rule="evenodd" d="M8.99976 13.1458C12.3619 13.1458 15.0874 10.4722 15.0874 7.17406C15.0874 3.87594 12.3619 1.20229 8.99976 1.20229C5.63766 1.20229 2.91214 3.87594 2.91214 7.17406C2.91214 10.4722 5.63766 13.1458 8.99976 13.1458ZM15.8645 7.17406C15.8645 9.6403 14.513 11.7969 12.497 12.97V13.654H12.8856C15.2462 13.654 17.1598 15.5312 17.1598 17.8469C17.1598 20.1626 15.2462 22.0399 12.8856 22.0399H5.11413C2.75351 22.0399 0.839844 20.1626 0.839844 17.8469C0.839844 15.5312 2.75351 13.654 5.11413 13.654H5.76172V13.1135C3.60314 11.9786 2.135 9.74454 2.135 7.17406C2.135 3.45491 5.20846 0.439941 8.99976 0.439941C12.7911 0.439941 15.8645 3.45491 15.8645 7.17406ZM5.76172 14.4164V14.4164H12.497V14.4164H12.8856C14.817 14.4164 16.3827 15.9523 16.3827 17.8469C16.3827 19.7416 14.817 21.2775 12.8856 21.2775H5.11413C3.18271 21.2775 1.61699 19.7416 1.61699 17.8469C1.61699 15.9523 3.18271 14.4164 5.11413 14.4164H5.76172ZM5.89132 19.2447C6.6782 19.2447 7.31609 18.6189 7.31609 17.847C7.31609 17.0751 6.6782 16.4494 5.89132 16.4494C5.10445 16.4494 4.46656 17.0751 4.46656 17.847C4.46656 18.6189 5.10445 19.2447 5.89132 19.2447ZM5.89117 20.007C7.10725 20.007 8.09308 19.0399 8.09308 17.847C8.09308 16.654 7.10725 15.687 5.89117 15.687C4.67509 15.687 3.68927 16.654 3.68927 17.847C3.68927 19.0399 4.67509 20.007 5.89117 20.007ZM5.89117 20.5152C7.39339 20.5152 8.61117 19.3206 8.61117 17.847C8.61117 16.3733 7.39339 15.1787 5.89117 15.1787C4.38896 15.1787 3.17117 16.3733 3.17117 17.847C3.17117 19.3206 4.38896 20.5152 5.89117 20.5152ZM14.3103 17.847C14.3103 19.0399 13.3245 20.007 12.1084 20.007C10.8924 20.007 9.90653 19.0399 9.90653 17.847C9.90653 16.654 10.8924 15.687 12.1084 15.687C13.3245 15.687 14.3103 16.654 14.3103 17.847ZM14.8284 17.847C14.8284 19.3206 13.6107 20.5152 12.1084 20.5152C10.6062 20.5152 9.38844 19.3206 9.38844 17.847C9.38844 16.3733 10.6062 15.1787 12.1084 15.1787C13.6107 15.1787 14.8284 16.3733 14.8284 17.847ZM13.5331 17.847C13.5331 18.6189 12.8952 19.2447 12.1084 19.2447C11.3215 19.2447 10.6836 18.6189 10.6836 17.847C10.6836 17.0751 11.3215 16.4494 12.1084 16.4494C12.8952 16.4494 13.5331 17.0751 13.5331 17.847ZM13.2742 7.17409C13.2742 9.48978 11.3606 11.367 8.99996 11.367C6.63934 11.367 4.72567 9.48978 4.72567 7.17409C4.72567 4.85839 6.63934 2.98115 8.99996 2.98115C11.3606 2.98115 13.2742 4.85839 13.2742 7.17409ZM13.7923 7.17409C13.7923 9.77048 11.6467 11.8753 8.99996 11.8753C6.3532 11.8753 4.20758 9.77048 4.20758 7.17409C4.20758 4.5777 6.3532 2.47291 8.99996 2.47291C11.6467 2.47291 13.7923 4.5777 13.7923 7.17409ZM7.18654 4.3788C7.90188 4.3788 8.48178 4.94766 8.48178 5.64939C8.48178 6.35111 7.90188 6.91998 7.18654 6.91998C6.4712 6.91998 5.89131 6.35111 5.89131 5.64939C5.89131 4.94766 6.4712 4.3788 7.18654 4.3788ZM7.18654 3.99762C8.11649 3.99762 8.87035 4.73714 8.87035 5.64939C8.87035 6.56163 8.11649 7.30115 7.18654 7.30115C6.2566 7.30115 5.50273 6.56163 5.50273 5.64939C5.50273 4.73714 6.2566 3.99762 7.18654 3.99762ZM12.1085 5.64939C12.1085 4.94766 11.5286 4.3788 10.8133 4.3788C10.0979 4.3788 9.51802 4.94766 9.51802 5.64939C9.51802 6.35111 10.0979 6.91998 10.8133 6.91998C11.5286 6.91998 12.1085 6.35111 12.1085 5.64939ZM12.4971 5.64939C12.4971 4.73714 11.7432 3.99762 10.8133 3.99762C9.88332 3.99762 9.12945 4.73714 9.12945 5.64939C9.12945 6.56163 9.88332 7.30115 10.8133 7.30115C11.7432 7.30115 12.4971 6.56163 12.4971 5.64939ZM8.99984 8.69879C9.57211 8.69879 10.036 9.15388 10.036 9.71526C10.036 10.2766 9.57211 10.7317 8.99984 10.7317C8.42757 10.7317 7.96365 10.2766 7.96365 9.71526C7.96365 9.15388 8.42757 8.69879 8.99984 8.69879ZM8.99984 8.31762C9.78671 8.31762 10.4246 8.94336 10.4246 9.71526C10.4246 10.4872 9.78671 11.1129 8.99984 11.1129C8.21297 11.1129 7.57508 10.4872 7.57508 9.71526C7.57508 8.94336 8.21297 8.31762 8.99984 8.31762ZM7.05696 8.57165C7.05696 8.29096 6.825 8.06342 6.53886 8.06342C6.25273 8.06342 6.02077 8.29096 6.02077 8.57165C6.02077 8.85234 6.25273 9.07989 6.53886 9.07989C6.825 9.07989 7.05696 8.85234 7.05696 8.57165ZM7.316 8.57165C7.316 8.15061 6.96807 7.8093 6.53886 7.8093C6.10966 7.8093 5.76172 8.15061 5.76172 8.57165C5.76172 8.99269 6.10966 9.334 6.53886 9.334C6.96807 9.334 7.316 8.99269 7.316 8.57165ZM11.4607 8.06342C11.7469 8.06342 11.9788 8.29096 11.9788 8.57165C11.9788 8.85234 11.7469 9.07989 11.4607 9.07989C11.1746 9.07989 10.9426 8.85234 10.9426 8.57165C10.9426 8.29096 11.1746 8.06342 11.4607 8.06342ZM11.4607 7.8093C11.8899 7.8093 12.2379 8.15061 12.2379 8.57165C12.2379 8.99269 11.8899 9.334 11.4607 9.334C11.0315 9.334 10.6836 8.99269 10.6836 8.57165C10.6836 8.15061 11.0315 7.8093 11.4607 7.8093ZM10.813 6.14015C11.0891 6.14015 11.313 5.92055 11.313 5.64966C11.313 5.37878 11.0891 5.15918 10.813 5.15918C10.5368 5.15918 10.313 5.37878 10.313 5.64966C10.313 5.92055 10.5368 6.14015 10.813 6.14015ZM7.6867 5.64966C7.6867 5.92055 7.46284 6.14015 7.1867 6.14015C6.91056 6.14015 6.6867 5.92055 6.6867 5.64966C6.6867 5.37878 6.91056 5.15918 7.1867 5.15918C7.46284 5.15918 7.6867 5.37878 7.6867 5.64966ZM9 10.2056C9.27614 10.2056 9.5 9.98598 9.5 9.71509C9.5 9.44421 9.27614 9.22461 9 9.22461C8.72386 9.22461 8.5 9.44421 8.5 9.71509C8.5 9.98598 8.72386 10.2056 9 10.2056Z" fill="currentColor"></path><path d="M12.497 12.97L12.0141 12.1403L11.537 12.4179V12.97H12.497ZM12.497 13.654H11.537V14.614H12.497V13.654ZM5.76172 13.654V14.614H6.72172V13.654H5.76172ZM5.76172 13.1135H6.72172V12.5336L6.20844 12.2637L5.76172 13.1135ZM5.76172 14.4164H4.80172V15.3764H5.76172V14.4164ZM5.76172 14.4164H6.72172V13.4564H5.76172V14.4164ZM12.497 14.4164V15.3764H13.457V14.4164H12.497ZM12.497 14.4164V13.4564H11.537V14.4164H12.497ZM14.1274 7.17406C14.1274 9.92467 11.8491 12.1858 8.99976 12.1858V14.1058C12.8746 14.1058 16.0474 11.0197 16.0474 7.17406H14.1274ZM8.99976 2.16229C11.8491 2.16229 14.1274 4.42344 14.1274 7.17406H16.0474C16.0474 3.32844 12.8746 0.242294 8.99976 0.242294V2.16229ZM3.87214 7.17406C3.87214 4.42344 6.15038 2.16229 8.99976 2.16229V0.242294C5.12494 0.242294 1.95214 3.32844 1.95214 7.17406H3.87214ZM8.99976 12.1858C6.15038 12.1858 3.87214 9.92467 3.87214 7.17406H1.95214C1.95214 11.0197 5.12494 14.1058 8.99976 14.1058V12.1858ZM12.9798 13.7998C15.2737 12.465 16.8245 10.002 16.8245 7.17406H14.9045C14.9045 9.27857 13.7524 11.1288 12.0141 12.1403L12.9798 13.7998ZM13.457 13.654V12.97H11.537V13.654H13.457ZM12.8856 12.694H12.497V14.614H12.8856V12.694ZM18.1198 17.8469C18.1198 14.9837 15.7589 12.694 12.8856 12.694V14.614C14.7335 14.614 16.1998 16.0787 16.1998 17.8469H18.1198ZM12.8856 22.9999C15.7589 22.9999 18.1198 20.7101 18.1198 17.8469H16.1998C16.1998 19.6151 14.7335 21.0799 12.8856 21.0799V22.9999ZM5.11413 22.9999H12.8856V21.0799H5.11413V22.9999ZM-0.120156 17.8469C-0.120156 20.7101 2.24079 22.9999 5.11413 22.9999V21.0799C3.26623 21.0799 1.79984 19.6151 1.79984 17.8469H-0.120156ZM5.11413 12.694C2.24079 12.694 -0.120156 14.9837 -0.120156 17.8469H1.79984C1.79984 16.0787 3.26623 14.614 5.11413 14.614V12.694ZM5.76172 12.694H5.11413V14.614H5.76172V12.694ZM4.80172 13.1135V13.654H6.72172V13.1135H4.80172ZM1.175 7.17406C1.175 10.1218 2.85955 12.6723 5.31499 13.9632L6.20844 12.2637C4.34673 11.285 3.095 9.36724 3.095 7.17406H1.175ZM8.99976 -0.520059C4.69574 -0.520059 1.175 2.90741 1.175 7.17406H3.095C3.095 4.00241 5.72118 1.39994 8.99976 1.39994V-0.520059ZM16.8245 7.17406C16.8245 2.90741 13.3038 -0.520059 8.99976 -0.520059V1.39994C12.2783 1.39994 14.9045 4.00241 14.9045 7.17406H16.8245ZM6.72172 14.4164V14.4164H4.80172V14.4164H6.72172ZM12.497 13.4564H5.76172V15.3764H12.497V13.4564ZM11.537 14.4164V14.4164H13.457V14.4164H11.537ZM12.8856 13.4564H12.497V15.3764H12.8856V13.4564ZM17.3427 17.8469C17.3427 15.4048 15.3297 13.4564 12.8856 13.4564V15.3764C14.3043 15.3764 15.4227 16.4998 15.4227 17.8469H17.3427ZM12.8856 22.2375C15.3297 22.2375 17.3427 20.2891 17.3427 17.8469H15.4227C15.4227 19.1941 14.3043 20.3175 12.8856 20.3175V22.2375ZM5.11413 22.2375H12.8856V20.3175H5.11413V22.2375ZM0.656987 17.8469C0.656987 20.2891 2.66999 22.2375 5.11413 22.2375V20.3175C3.69543 20.3175 2.57699 19.1941 2.57699 17.8469H0.656987ZM5.11413 13.4564C2.66999 13.4564 0.656987 15.4048 0.656987 17.8469H2.57699C2.57699 16.4998 3.69543 15.3764 5.11413 15.3764V13.4564ZM5.76172 13.4564H5.11413V15.3764H5.76172V13.4564ZM6.35609 17.847C6.35609 18.0714 6.16548 18.2847 5.89132 18.2847V20.2047C7.19092 20.2047 8.27609 19.1664 8.27609 17.847H6.35609ZM5.89132 17.4094C6.16548 17.4094 6.35609 17.6226 6.35609 17.847H8.27609C8.27609 16.5276 7.19092 15.4894 5.89132 15.4894V17.4094ZM5.42656 17.847C5.42656 17.6226 5.61717 17.4094 5.89132 17.4094V15.4894C4.59173 15.4894 3.50656 16.5276 3.50656 17.847H5.42656ZM5.89132 18.2847C5.61717 18.2847 5.42656 18.0714 5.42656 17.847H3.50656C3.50656 19.1664 4.59173 20.2047 5.89132 20.2047V18.2847ZM7.13308 17.847C7.13308 18.4924 6.59453 19.047 5.89117 19.047V20.967C7.61997 20.967 9.05308 19.5874 9.05308 17.847H7.13308ZM5.89117 16.647C6.59453 16.647 7.13308 17.2015 7.13308 17.847H9.05308C9.05308 16.1065 7.61997 14.727 5.89117 14.727V16.647ZM4.64927 17.847C4.64927 17.2015 5.18781 16.647 5.89117 16.647V14.727C4.16237 14.727 2.72927 16.1065 2.72927 17.847H4.64927ZM5.89117 19.047C5.18781 19.047 4.64927 18.4924 4.64927 17.847H2.72927C2.72927 19.5874 4.16237 20.967 5.89117 20.967V19.047ZM7.65117 17.847C7.65117 18.7731 6.88067 19.5552 5.89117 19.5552V21.4752C7.90611 21.4752 9.57117 19.8681 9.57117 17.847H7.65117ZM5.89117 16.1387C6.88067 16.1387 7.65117 16.9208 7.65117 17.847H9.57117C9.57117 15.8258 7.90611 14.2187 5.89117 14.2187V16.1387ZM4.13117 17.847C4.13117 16.9208 4.90168 16.1387 5.89117 16.1387V14.2187C3.87624 14.2187 2.21117 15.8258 2.21117 17.847H4.13117ZM5.89117 19.5552C4.90168 19.5552 4.13117 18.7731 4.13117 17.847H2.21117C2.21117 19.8681 3.87624 21.4752 5.89117 21.4752V19.5552ZM12.1084 20.967C13.8372 20.967 15.2703 19.5874 15.2703 17.847H13.3503C13.3503 18.4924 12.8118 19.047 12.1084 19.047V20.967ZM8.94653 17.847C8.94653 19.5874 10.3796 20.967 12.1084 20.967V19.047C11.4051 19.047 10.8665 18.4924 10.8665 17.847H8.94653ZM12.1084 14.727C10.3796 14.727 8.94653 16.1065 8.94653 17.847H10.8665C10.8665 17.2015 11.4051 16.647 12.1084 16.647V14.727ZM15.2703 17.847C15.2703 16.1065 13.8372 14.727 12.1084 14.727V16.647C12.8118 16.647 13.3503 17.2015 13.3503 17.847H15.2703ZM12.1084 21.4752C14.1234 21.4752 15.7884 19.8681 15.7884 17.847H13.8684C13.8684 18.7731 13.0979 19.5552 12.1084 19.5552V21.4752ZM8.42844 17.847C8.42844 19.8681 10.0935 21.4752 12.1084 21.4752V19.5552C11.1189 19.5552 10.3484 18.7731 10.3484 17.847H8.42844ZM12.1084 14.2187C10.0935 14.2187 8.42844 15.8258 8.42844 17.847H10.3484C10.3484 16.9208 11.1189 16.1387 12.1084 16.1387V14.2187ZM15.7884 17.847C15.7884 15.8258 14.1234 14.2187 12.1084 14.2187V16.1387C13.0979 16.1387 13.8684 16.9208 13.8684 17.847H15.7884ZM12.1084 20.2047C13.408 20.2047 14.4931 19.1664 14.4931 17.847H12.5731C12.5731 18.0714 12.3825 18.2847 12.1084 18.2847V20.2047ZM9.72359 17.847C9.72359 19.1664 10.8088 20.2047 12.1084 20.2047V18.2847C11.8342 18.2847 11.6436 18.0714 11.6436 17.847H9.72359ZM12.1084 15.4894C10.8088 15.4894 9.72359 16.5276 9.72359 17.847H11.6436C11.6436 17.6226 11.8342 17.4094 12.1084 17.4094V15.4894ZM14.4931 17.847C14.4931 16.5276 13.408 15.4894 12.1084 15.4894V17.4094C12.3825 17.4094 12.5731 17.6226 12.5731 17.847H14.4931ZM8.99996 12.327C11.8733 12.327 14.2342 10.0373 14.2342 7.17409H12.3142C12.3142 8.94228 10.8479 10.407 8.99996 10.407V12.327ZM3.76567 7.17409C3.76567 10.0373 6.12662 12.327 8.99996 12.327V10.407C7.15206 10.407 5.68567 8.94228 5.68567 7.17409H3.76567ZM8.99996 2.02115C6.12662 2.02115 3.76567 4.31089 3.76567 7.17409H5.68567C5.68567 5.40589 7.15206 3.94115 8.99996 3.94115V2.02115ZM14.2342 7.17409C14.2342 4.31089 11.8733 2.02115 8.99996 2.02115V3.94115C10.8479 3.94115 12.3142 5.40589 12.3142 7.17409H14.2342ZM8.99996 12.8353C12.1594 12.8353 14.7523 10.318 14.7523 7.17409H12.8323C12.8323 9.22298 11.134 10.9153 8.99996 10.9153V12.8353ZM3.24758 7.17409C3.24758 10.318 5.84048 12.8353 8.99996 12.8353V10.9153C6.86592 10.9153 5.16758 9.22298 5.16758 7.17409H3.24758ZM8.99996 1.51291C5.84048 1.51291 3.24758 4.0302 3.24758 7.17409H5.16758C5.16758 5.1252 6.86592 3.43291 8.99996 3.43291V1.51291ZM14.7523 7.17409C14.7523 4.0302 12.1594 1.51291 8.99996 1.51291V3.43291C11.134 3.43291 12.8323 5.1252 12.8323 7.17409H14.7523ZM9.44178 5.64939C9.44178 4.40016 8.4146 3.4188 7.18654 3.4188V5.3388C7.38916 5.3388 7.52178 5.49516 7.52178 5.64939H9.44178ZM7.18654 7.87998C8.4146 7.87998 9.44178 6.89861 9.44178 5.64939H7.52178C7.52178 5.80361 7.38916 5.95998 7.18654 5.95998V7.87998ZM4.93131 5.64939C4.93131 6.89861 5.95848 7.87998 7.18654 7.87998V5.95998C6.98392 5.95998 6.85131 5.80361 6.85131 5.64939H4.93131ZM7.18654 3.4188C5.95848 3.4188 4.93131 4.40016 4.93131 5.64939H6.85131C6.85131 5.49516 6.98392 5.3388 7.18654 5.3388V3.4188ZM9.83035 5.64939C9.83035 4.18964 8.62921 3.03762 7.18654 3.03762V4.95762C7.60377 4.95762 7.91035 5.28464 7.91035 5.64939H9.83035ZM7.18654 8.26115C8.62921 8.26115 9.83035 7.10913 9.83035 5.64939H7.91035C7.91035 6.01413 7.60377 6.34115 7.18654 6.34115V8.26115ZM4.54273 5.64939C4.54273 7.10913 5.74388 8.26115 7.18654 8.26115V6.34115C6.76932 6.34115 6.46273 6.01413 6.46273 5.64939H4.54273ZM7.18654 3.03762C5.74388 3.03762 4.54273 4.18964 4.54273 5.64939H6.46273C6.46273 5.28464 6.76932 4.95762 7.18654 4.95762V3.03762ZM10.8133 5.3388C11.0159 5.3388 11.1485 5.49516 11.1485 5.64939H13.0685C13.0685 4.40016 12.0413 3.4188 10.8133 3.4188V5.3388ZM10.478 5.64939C10.478 5.49516 10.6106 5.3388 10.8133 5.3388V3.4188C9.5852 3.4188 8.55802 4.40016 8.55802 5.64939H10.478ZM10.8133 5.95998C10.6106 5.95998 10.478 5.80361 10.478 5.64939H8.55802C8.55802 6.89861 9.5852 7.87998 10.8133 7.87998V5.95998ZM11.1485 5.64939C11.1485 5.80361 11.0159 5.95998 10.8133 5.95998V7.87998C12.0413 7.87998 13.0685 6.89861 13.0685 5.64939H11.1485ZM10.8133 4.95762C11.2305 4.95762 11.5371 5.28464 11.5371 5.64939H13.4571C13.4571 4.18964 12.2559 3.03762 10.8133 3.03762V4.95762ZM10.0895 5.64939C10.0895 5.28464 10.396 4.95762 10.8133 4.95762V3.03762C9.3706 3.03762 8.16945 4.18964 8.16945 5.64939H10.0895ZM10.8133 6.34115C10.396 6.34115 10.0895 6.01413 10.0895 5.64939H8.16945C8.16945 7.10913 9.3706 8.26115 10.8133 8.26115V6.34115ZM11.5371 5.64939C11.5371 6.01413 11.2305 6.34115 10.8133 6.34115V8.26115C12.2559 8.26115 13.4571 7.10913 13.4571 5.64939H11.5371ZM10.996 9.71526C10.996 8.60638 10.0848 7.73879 8.99984 7.73879V9.65879C9.02714 9.65879 9.04686 9.66867 9.06027 9.68182C9.07335 9.69465 9.07603 9.70553 9.07603 9.71526H10.996ZM8.99984 11.6917C10.0848 11.6917 10.996 10.8241 10.996 9.71526H9.07603C9.07603 9.725 9.07335 9.73587 9.06027 9.7487C9.04686 9.76185 9.02714 9.77173 8.99984 9.77173V11.6917ZM7.00365 9.71526C7.00365 10.8241 7.91485 11.6917 8.99984 11.6917V9.77173C8.97254 9.77173 8.95282 9.76185 8.93941 9.7487C8.92633 9.73587 8.92365 9.725 8.92365 9.71526H7.00365ZM8.99984 7.73879C7.91485 7.73879 7.00365 8.60638 7.00365 9.71526H8.92365C8.92365 9.70553 8.92633 9.69465 8.93941 9.68182C8.95282 9.66867 8.97254 9.65879 8.99984 9.65879V7.73879ZM11.3846 9.71526C11.3846 8.39586 10.2994 7.35762 8.99984 7.35762V9.27762C9.27399 9.27762 9.4646 9.49086 9.4646 9.71526H11.3846ZM8.99984 12.0729C10.2994 12.0729 11.3846 11.0347 11.3846 9.71526H9.4646C9.4646 9.93966 9.274 10.1529 8.99984 10.1529V12.0729ZM6.61508 9.71526C6.61508 11.0347 7.70025 12.0729 8.99984 12.0729V10.1529C8.72569 10.1529 8.53508 9.93966 8.53508 9.71526H6.61508ZM8.99984 7.35762C7.70024 7.35762 6.61508 8.39586 6.61508 9.71526H8.53508C8.53508 9.49086 8.72569 9.27762 8.99984 9.27762V7.35762ZM6.53886 9.02342C6.31228 9.02342 6.09696 8.83846 6.09696 8.57165H8.01696C8.01696 7.74346 7.33772 7.10342 6.53886 7.10342V9.02342ZM6.98077 8.57165C6.98077 8.83846 6.76545 9.02342 6.53886 9.02342V7.10342C5.74001 7.10342 5.06077 7.74346 5.06077 8.57165H6.98077ZM6.53886 8.11989C6.76544 8.11989 6.98077 8.30484 6.98077 8.57165H5.06077C5.06077 9.39984 5.74001 10.0399 6.53886 10.0399V8.11989ZM6.09696 8.57165C6.09696 8.30484 6.31228 8.11989 6.53886 8.11989V10.0399C7.33772 10.0399 8.01696 9.39984 8.01696 8.57165H6.09696ZM6.53886 8.7693C6.45535 8.7693 6.356 8.69812 6.356 8.57165H8.276C8.276 7.60311 7.48079 6.8493 6.53886 6.8493V8.7693ZM6.72172 8.57165C6.72172 8.69811 6.62238 8.7693 6.53886 8.7693V6.8493C5.59694 6.8493 4.80172 7.60312 4.80172 8.57165H6.72172ZM6.53886 8.374C6.62238 8.374 6.72172 8.44519 6.72172 8.57165H4.80172C4.80172 9.54018 5.59694 10.294 6.53886 10.294V8.374ZM6.356 8.57165C6.356 8.44519 6.45535 8.374 6.53886 8.374V10.294C7.48079 10.294 8.276 9.54019 8.276 8.57165H6.356ZM12.9388 8.57165C12.9388 7.74346 12.2596 7.10342 11.4607 7.10342V9.02342C11.2342 9.02342 11.0188 8.83846 11.0188 8.57165H12.9388ZM11.4607 10.0399C12.2596 10.0399 12.9388 9.39984 12.9388 8.57165H11.0188C11.0188 8.30484 11.2342 8.11989 11.4607 8.11989V10.0399ZM9.98264 8.57165C9.98264 9.39984 10.6619 10.0399 11.4607 10.0399V8.11989C11.6873 8.11989 11.9026 8.30484 11.9026 8.57165H9.98264ZM11.4607 7.10342C10.6619 7.10342 9.98264 7.74346 9.98264 8.57165H11.9026C11.9026 8.83846 11.6873 9.02342 11.4607 9.02342V7.10342ZM13.1979 8.57165C13.1979 7.60312 12.4027 6.8493 11.4607 6.8493V8.7693C11.3772 8.7693 11.2779 8.69811 11.2779 8.57165H13.1979ZM11.4607 10.294C12.4027 10.294 13.1979 9.54018 13.1979 8.57165H11.2779C11.2779 8.44519 11.3772 8.374 11.4607 8.374V10.294ZM9.72359 8.57165C9.72359 9.54018 10.5188 10.294 11.4607 10.294V8.374C11.5443 8.374 11.6436 8.44519 11.6436 8.57165H9.72359ZM11.4607 6.8493C10.5188 6.8493 9.72359 7.60312 9.72359 8.57165H11.6436C11.6436 8.69811 11.5443 8.7693 11.4607 8.7693V6.8493ZM10.353 5.64966C10.353 5.37305 10.5764 5.18015 10.813 5.18015V7.10015C11.6019 7.10015 12.273 6.46805 12.273 5.64966H10.353ZM10.813 6.11918C10.5764 6.11918 10.353 5.92628 10.353 5.64966H12.273C12.273 4.83128 11.6018 4.19918 10.813 4.19918V6.11918ZM11.273 5.64966C11.273 5.92628 11.0496 6.11918 10.813 6.11918V4.19918C10.0241 4.19918 9.35299 4.83128 9.35299 5.64966H11.273ZM10.813 5.18015C11.0496 5.18015 11.273 5.37305 11.273 5.64966H9.35299C9.35299 6.46805 10.0241 7.10015 10.813 7.10015V5.18015ZM7.1867 7.10015C7.97556 7.10015 8.6467 6.46805 8.6467 5.64966H6.7267C6.7267 5.37305 6.95012 5.18015 7.1867 5.18015V7.10015ZM5.7267 5.64966C5.7267 6.46805 6.39784 7.10015 7.1867 7.10015V5.18015C7.42328 5.18015 7.6467 5.37305 7.6467 5.64966H5.7267ZM7.1867 4.19918C6.39784 4.19918 5.7267 4.83128 5.7267 5.64966H7.6467C7.6467 5.92628 7.42328 6.11918 7.1867 6.11918V4.19918ZM8.6467 5.64966C8.6467 4.83128 7.97556 4.19918 7.1867 4.19918V6.11918C6.95012 6.11918 6.7267 5.92628 6.7267 5.64966H8.6467ZM8.54 9.71509C8.54 9.43848 8.76342 9.24558 9 9.24558V11.1656C9.78886 11.1656 10.46 10.5335 10.46 9.71509H8.54ZM9 10.1846C8.76342 10.1846 8.54 9.99171 8.54 9.71509H10.46C10.46 8.89671 9.78886 8.26461 9 8.26461V10.1846ZM9.46 9.71509C9.46 9.99171 9.23658 10.1846 9 10.1846V8.26461C8.21114 8.26461 7.54 8.89671 7.54 9.71509H9.46ZM9 9.24558C9.23658 9.24558 9.46 9.43848 9.46 9.71509H7.54C7.54 10.5335 8.21114 11.1656 9 11.1656V9.24558Z" fill="currentColor" mask="url(#path-1-inside-1_5956_44139)"></path></g></svg>