<svg width="32" height="32" viewBox="0 0 22 22" fill="none" xmlns="http://www.w3.org/2000/svg"><g id="ic_standard_charge"><g id="Union"><mask id="path-1-inside-1_5953_44785" fill="currentColor"><path fill-rule="evenodd" clip-rule="evenodd" d="M10.9999 20.4484C16.2182 20.4484 20.4484 16.2182 20.4484 10.9999C20.4484 5.78172 16.2182 1.55152 10.9999 1.55152C5.78172 1.55152 1.55152 5.78172 1.55152 10.9999C1.55152 16.2182 5.78172 20.4484 10.9999 20.4484ZM10.9999 21.5599C16.8321 21.5599 21.5599 16.8321 21.5599 10.9999C21.5599 5.16781 16.8321 0.439941 10.9999 0.439941C5.16781 0.439941 0.439941 5.16781 0.439941 10.9999C0.439941 16.8321 5.16781 21.5599 10.9999 21.5599ZM17.6982 10.9999C17.6982 14.6993 14.6992 17.6983 10.9998 17.6983C7.30044 17.6983 4.30149 14.6993 4.30149 10.9999C4.30149 7.30052 7.30044 4.30157 10.9998 4.30157C14.6992 4.30157 17.6982 7.30052 17.6982 10.9999ZM19.3655 10.9999C19.3655 15.6202 15.6201 19.3656 10.9998 19.3656C6.37958 19.3656 2.63412 15.6202 2.63412 10.9999C2.63412 6.37966 6.37958 2.6342 10.9998 2.6342C15.6201 2.6342 19.3655 6.37966 19.3655 10.9999ZM9.76207 9.21716C9.76207 10.2756 8.90407 11.1335 7.84568 11.1335C6.78728 11.1335 5.92929 10.2756 5.92929 9.21716C5.92929 8.15876 6.78728 7.30077 7.84568 7.30077C8.90407 7.30077 9.76207 8.15876 9.76207 9.21716ZM10.04 9.21716C10.04 10.429 9.05755 11.4114 7.84568 11.4114C6.63381 11.4114 5.65139 10.429 5.65139 9.21716C5.65139 8.00529 6.63381 7.02287 7.84568 7.02287C9.05755 7.02287 10.04 8.00529 10.04 9.21716ZM7.8456 10.5885C8.60302 10.5885 9.21703 9.9745 9.21703 9.21708C9.21703 8.45966 8.60302 7.84565 7.8456 7.84565C7.08818 7.84565 6.47417 8.45966 6.47417 9.21708C6.47417 9.9745 7.08818 10.5885 7.8456 10.5885ZM15.8 9.21708C15.8 9.9745 15.186 10.5885 14.4286 10.5885C13.6712 10.5885 13.0572 9.9745 13.0572 9.21708C13.0572 8.45966 13.6712 7.84565 14.4286 7.84565C15.186 7.84565 15.8 8.45966 15.8 9.21708ZM16.3449 9.21716C16.3449 10.2756 15.4869 11.1335 14.4285 11.1335C13.3701 11.1335 12.5121 10.2756 12.5121 9.21716C12.5121 8.15876 13.3701 7.30077 14.4285 7.30077C15.4869 7.30077 16.3449 8.15876 16.3449 9.21716ZM16.6228 9.21716C16.6228 10.429 15.6404 11.4114 14.4285 11.4114C13.2167 11.4114 12.2342 10.429 12.2342 9.21716C12.2342 8.00529 13.2167 7.02287 14.4285 7.02287C15.6404 7.02287 16.6228 8.00529 16.6228 9.21716ZM10.9998 16.0706C11.9825 16.0706 12.7791 15.274 12.7791 14.2913C12.7791 13.3087 11.9825 12.5121 10.9998 12.5121C10.0172 12.5121 9.22056 13.3087 9.22056 14.2913C9.22056 15.274 10.0172 16.0706 10.9998 16.0706ZM10.9998 16.3485C12.1359 16.3485 13.057 15.4274 13.057 14.2913C13.057 13.1552 12.1359 12.2342 10.9998 12.2342C9.86368 12.2342 8.94267 13.1552 8.94267 14.2913C8.94267 15.4274 9.86368 16.3485 10.9998 16.3485ZM15.7963 13.4685C15.7963 13.9967 15.3681 14.4248 14.8399 14.4248C14.3117 14.4248 13.8835 13.9967 13.8835 13.4685C13.8835 12.9403 14.3117 12.5121 14.8399 12.5121C15.3681 12.5121 15.7963 12.9403 15.7963 13.4685ZM16.0742 13.4685C16.0742 14.1501 15.5216 14.7027 14.8399 14.7027C14.1583 14.7027 13.6056 14.1501 13.6056 13.4685C13.6056 12.7868 14.1583 12.2342 14.8399 12.2342C15.5216 12.2342 16.0742 12.7868 16.0742 13.4685ZM7.15999 14.4248C7.68819 14.4248 8.11638 13.9967 8.11638 13.4685C8.11638 12.9403 7.68819 12.5121 7.15999 12.5121C6.63179 12.5121 6.2036 12.9403 6.2036 13.4685C6.2036 13.9967 6.63179 14.4248 7.15999 14.4248ZM7.15999 14.7027C7.84167 14.7027 8.39428 14.1501 8.39428 13.4685C8.39428 12.7868 7.84167 12.2342 7.15999 12.2342C6.47831 12.2342 5.9257 12.7868 5.9257 13.4685C5.9257 14.1501 6.47831 14.7027 7.15999 14.7027ZM11 15.5258C11.6817 15.5258 12.2343 14.9731 12.2343 14.2915C12.2343 13.6098 11.6817 13.0572 11 13.0572C10.3184 13.0572 9.76575 13.6098 9.76575 14.2915C9.76575 14.9731 10.3184 15.5258 11 15.5258ZM15.5257 13.4685C15.5257 13.8472 15.2187 14.1542 14.84 14.1542C14.4613 14.1542 14.1543 13.8472 14.1543 13.4685C14.1543 13.0898 14.4613 12.7828 14.84 12.7828C15.2187 12.7828 15.5257 13.0898 15.5257 13.4685ZM7.15989 14.1542C7.5386 14.1542 7.8456 13.8472 7.8456 13.4685C7.8456 13.0898 7.5386 12.7828 7.15989 12.7828C6.78118 12.7828 6.47417 13.0898 6.47417 13.4685C6.47417 13.8472 6.78118 14.1542 7.15989 14.1542Z"></path></mask><path fill-rule="evenodd" clip-rule="evenodd" d="M10.9999 20.4484C16.2182 20.4484 20.4484 16.2182 20.4484 10.9999C20.4484 5.78172 16.2182 1.55152 10.9999 1.55152C5.78172 1.55152 1.55152 5.78172 1.55152 10.9999C1.55152 16.2182 5.78172 20.4484 10.9999 20.4484ZM10.9999 21.5599C16.8321 21.5599 21.5599 16.8321 21.5599 10.9999C21.5599 5.16781 16.8321 0.439941 10.9999 0.439941C5.16781 0.439941 0.439941 5.16781 0.439941 10.9999C0.439941 16.8321 5.16781 21.5599 10.9999 21.5599ZM17.6982 10.9999C17.6982 14.6993 14.6992 17.6983 10.9998 17.6983C7.30044 17.6983 4.30149 14.6993 4.30149 10.9999C4.30149 7.30052 7.30044 4.30157 10.9998 4.30157C14.6992 4.30157 17.6982 7.30052 17.6982 10.9999ZM19.3655 10.9999C19.3655 15.6202 15.6201 19.3656 10.9998 19.3656C6.37958 19.3656 2.63412 15.6202 2.63412 10.9999C2.63412 6.37966 6.37958 2.6342 10.9998 2.6342C15.6201 2.6342 19.3655 6.37966 19.3655 10.9999ZM9.76207 9.21716C9.76207 10.2756 8.90407 11.1335 7.84568 11.1335C6.78728 11.1335 5.92929 10.2756 5.92929 9.21716C5.92929 8.15876 6.78728 7.30077 7.84568 7.30077C8.90407 7.30077 9.76207 8.15876 9.76207 9.21716ZM10.04 9.21716C10.04 10.429 9.05755 11.4114 7.84568 11.4114C6.63381 11.4114 5.65139 10.429 5.65139 9.21716C5.65139 8.00529 6.63381 7.02287 7.84568 7.02287C9.05755 7.02287 10.04 8.00529 10.04 9.21716ZM7.8456 10.5885C8.60302 10.5885 9.21703 9.9745 9.21703 9.21708C9.21703 8.45966 8.60302 7.84565 7.8456 7.84565C7.08818 7.84565 6.47417 8.45966 6.47417 9.21708C6.47417 9.9745 7.08818 10.5885 7.8456 10.5885ZM15.8 9.21708C15.8 9.9745 15.186 10.5885 14.4286 10.5885C13.6712 10.5885 13.0572 9.9745 13.0572 9.21708C13.0572 8.45966 13.6712 7.84565 14.4286 7.84565C15.186 7.84565 15.8 8.45966 15.8 9.21708ZM16.3449 9.21716C16.3449 10.2756 15.4869 11.1335 14.4285 11.1335C13.3701 11.1335 12.5121 10.2756 12.5121 9.21716C12.5121 8.15876 13.3701 7.30077 14.4285 7.30077C15.4869 7.30077 16.3449 8.15876 16.3449 9.21716ZM16.6228 9.21716C16.6228 10.429 15.6404 11.4114 14.4285 11.4114C13.2167 11.4114 12.2342 10.429 12.2342 9.21716C12.2342 8.00529 13.2167 7.02287 14.4285 7.02287C15.6404 7.02287 16.6228 8.00529 16.6228 9.21716ZM10.9998 16.0706C11.9825 16.0706 12.7791 15.274 12.7791 14.2913C12.7791 13.3087 11.9825 12.5121 10.9998 12.5121C10.0172 12.5121 9.22056 13.3087 9.22056 14.2913C9.22056 15.274 10.0172 16.0706 10.9998 16.0706ZM10.9998 16.3485C12.1359 16.3485 13.057 15.4274 13.057 14.2913C13.057 13.1552 12.1359 12.2342 10.9998 12.2342C9.86368 12.2342 8.94267 13.1552 8.94267 14.2913C8.94267 15.4274 9.86368 16.3485 10.9998 16.3485ZM15.7963 13.4685C15.7963 13.9967 15.3681 14.4248 14.8399 14.4248C14.3117 14.4248 13.8835 13.9967 13.8835 13.4685C13.8835 12.9403 14.3117 12.5121 14.8399 12.5121C15.3681 12.5121 15.7963 12.9403 15.7963 13.4685ZM16.0742 13.4685C16.0742 14.1501 15.5216 14.7027 14.8399 14.7027C14.1583 14.7027 13.6056 14.1501 13.6056 13.4685C13.6056 12.7868 14.1583 12.2342 14.8399 12.2342C15.5216 12.2342 16.0742 12.7868 16.0742 13.4685ZM7.15999 14.4248C7.68819 14.4248 8.11638 13.9967 8.11638 13.4685C8.11638 12.9403 7.68819 12.5121 7.15999 12.5121C6.63179 12.5121 6.2036 12.9403 6.2036 13.4685C6.2036 13.9967 6.63179 14.4248 7.15999 14.4248ZM7.15999 14.7027C7.84167 14.7027 8.39428 14.1501 8.39428 13.4685C8.39428 12.7868 7.84167 12.2342 7.15999 12.2342C6.47831 12.2342 5.9257 12.7868 5.9257 13.4685C5.9257 14.1501 6.47831 14.7027 7.15999 14.7027ZM11 15.5258C11.6817 15.5258 12.2343 14.9731 12.2343 14.2915C12.2343 13.6098 11.6817 13.0572 11 13.0572C10.3184 13.0572 9.76575 13.6098 9.76575 14.2915C9.76575 14.9731 10.3184 15.5258 11 15.5258ZM15.5257 13.4685C15.5257 13.8472 15.2187 14.1542 14.84 14.1542C14.4613 14.1542 14.1543 13.8472 14.1543 13.4685C14.1543 13.0898 14.4613 12.7828 14.84 12.7828C15.2187 12.7828 15.5257 13.0898 15.5257 13.4685ZM7.15989 14.1542C7.5386 14.1542 7.8456 13.8472 7.8456 13.4685C7.8456 13.0898 7.5386 12.7828 7.15989 12.7828C6.78118 12.7828 6.47417 13.0898 6.47417 13.4685C6.47417 13.8472 6.78118 14.1542 7.15989 14.1542Z" fill="currentColor"></path><path d="M20.1326 10.9999C20.1326 16.0438 16.0438 20.1326 10.9999 20.1326V20.7641C16.3926 20.7641 20.7641 16.3926 20.7641 10.9999H20.1326ZM10.9999 1.86731C16.0438 1.86731 20.1326 5.95613 20.1326 10.9999H20.7641C20.7641 5.60732 16.3926 1.23573 10.9999 1.23573V1.86731ZM1.86731 10.9999C1.86731 5.95613 5.95613 1.86731 10.9999 1.86731V1.23573C5.60732 1.23573 1.23573 5.60732 1.23573 10.9999H1.86731ZM10.9999 20.1326C5.95613 20.1326 1.86731 16.0438 1.86731 10.9999H1.23573C1.23573 16.3926 5.60732 20.7641 10.9999 20.7641V20.1326ZM21.2441 10.9999C21.2441 16.6577 16.6577 21.2441 10.9999 21.2441V21.8757C17.0065 21.8757 21.8757 17.0065 21.8757 10.9999H21.2441ZM10.9999 0.755731C16.6577 0.755731 21.2441 5.34222 21.2441 10.9999H21.8757C21.8757 4.99341 17.0065 0.124152 10.9999 0.124152V0.755731ZM0.755731 10.9999C0.755731 5.34222 5.34222 0.755731 10.9999 0.755731V0.124152C4.99341 0.124152 0.124152 4.99341 0.124152 10.9999H0.755731ZM10.9999 21.2441C5.34222 21.2441 0.755731 16.6577 0.755731 10.9999H0.124152C0.124152 17.0065 4.99341 21.8757 10.9999 21.8757V21.2441ZM10.9998 18.014C14.8736 18.014 18.014 14.8737 18.014 10.9999H17.3824C17.3824 14.5249 14.5248 17.3825 10.9998 17.3825V18.014ZM3.9857 10.9999C3.9857 14.8737 7.12604 18.014 10.9998 18.014V17.3825C7.47485 17.3825 4.61728 14.5249 4.61728 10.9999H3.9857ZM10.9998 3.98578C7.12604 3.98578 3.9857 7.12611 3.9857 10.9999H4.61728C4.61728 7.47493 7.47485 4.61736 10.9998 4.61736V3.98578ZM18.014 10.9999C18.014 7.12611 14.8736 3.98578 10.9998 3.98578V4.61736C14.5248 4.61736 17.3824 7.47493 17.3824 10.9999H18.014ZM10.9998 19.6814C15.7945 19.6814 19.6813 15.7946 19.6813 10.9999H19.0498C19.0498 15.4458 15.4457 19.0498 10.9998 19.0498V19.6814ZM2.31833 10.9999C2.31833 15.7946 6.20517 19.6814 10.9998 19.6814V19.0498C6.55399 19.0498 2.94991 15.4458 2.94991 10.9999H2.31833ZM10.9998 2.31841C6.20517 2.31841 2.31833 6.20525 2.31833 10.9999H2.94991C2.94991 6.55406 6.55399 2.94999 10.9998 2.94999V2.31841ZM19.6813 10.9999C19.6813 6.20525 15.7945 2.31841 10.9998 2.31841V2.94999C15.4457 2.94999 19.0498 6.55406 19.0498 10.9999H19.6813ZM7.84568 11.4493C9.07848 11.4493 10.0779 10.45 10.0779 9.21716H9.44628C9.44628 10.1011 8.72966 10.8178 7.84568 10.8178V11.4493ZM5.6135 9.21716C5.6135 10.45 6.61288 11.4493 7.84568 11.4493V10.8178C6.96169 10.8178 6.24508 10.1011 6.24508 9.21716H5.6135ZM7.84568 6.98498C6.61288 6.98498 5.6135 7.98436 5.6135 9.21716H6.24508C6.24508 8.33317 6.96169 7.61656 7.84568 7.61656V6.98498ZM10.0779 9.21716C10.0779 7.98436 9.07848 6.98498 7.84568 6.98498V7.61656C8.72966 7.61656 9.44628 8.33317 9.44628 9.21716H10.0779ZM7.84568 11.7272C9.23195 11.7272 10.3558 10.6034 10.3558 9.21716H9.72417C9.72417 10.2546 8.88314 11.0957 7.84568 11.0957V11.7272ZM5.3356 9.21716C5.3356 10.6034 6.4594 11.7272 7.84568 11.7272V11.0957C6.80821 11.0957 5.96718 10.2546 5.96718 9.21716H5.3356ZM7.84568 6.70708C6.4594 6.70708 5.3356 7.83088 5.3356 9.21716H5.96718C5.96718 8.17969 6.80821 7.33866 7.84568 7.33866V6.70708ZM10.3558 9.21716C10.3558 7.83088 9.23195 6.70708 7.84568 6.70708V7.33866C8.88314 7.33866 9.72417 8.17969 9.72417 9.21716H10.3558ZM8.90124 9.21708C8.90124 9.80009 8.42861 10.2727 7.8456 10.2727V10.9043C8.77742 10.9043 9.53282 10.1489 9.53282 9.21708H8.90124ZM7.8456 8.16144C8.42861 8.16144 8.90124 8.63407 8.90124 9.21708H9.53282C9.53282 8.28525 8.77743 7.52986 7.8456 7.52986V8.16144ZM6.78996 9.21708C6.78996 8.63407 7.26259 8.16144 7.8456 8.16144V7.52986C6.91378 7.52986 6.15838 8.28525 6.15838 9.21708H6.78996ZM7.8456 10.2727C7.26259 10.2727 6.78996 9.80009 6.78996 9.21708H6.15838C6.15838 10.1489 6.91378 10.9043 7.8456 10.9043V10.2727ZM14.4286 10.9043C15.3604 10.9043 16.1158 10.1489 16.1158 9.21708H15.4842C15.4842 9.80009 15.0116 10.2727 14.4286 10.2727V10.9043ZM12.7414 9.21708C12.7414 10.1489 13.4968 10.9043 14.4286 10.9043V10.2727C13.8456 10.2727 13.373 9.80009 13.373 9.21708H12.7414ZM14.4286 7.52986C13.4968 7.52986 12.7414 8.28525 12.7414 9.21708H13.373C13.373 8.63407 13.8456 8.16144 14.4286 8.16144V7.52986ZM16.1158 9.21708C16.1158 8.28525 15.3604 7.52986 14.4286 7.52986V8.16144C15.0116 8.16144 15.4842 8.63407 15.4842 9.21708H16.1158ZM14.4285 11.4493C15.6613 11.4493 16.6607 10.45 16.6607 9.21716H16.0291C16.0291 10.1011 15.3125 10.8178 14.4285 10.8178V11.4493ZM12.1964 9.21716C12.1964 10.45 13.1957 11.4493 14.4285 11.4493V10.8178C13.5445 10.8178 12.8279 10.1011 12.8279 9.21716H12.1964ZM14.4285 6.98498C13.1957 6.98498 12.1964 7.98436 12.1964 9.21716H12.8279C12.8279 8.33317 13.5445 7.61656 14.4285 7.61656V6.98498ZM16.6607 9.21716C16.6607 7.98436 15.6613 6.98498 14.4285 6.98498V7.61656C15.3125 7.61656 16.0291 8.33317 16.0291 9.21716H16.6607ZM14.4285 11.7272C15.8148 11.7272 16.9386 10.6034 16.9386 9.21716H16.307C16.307 10.2546 15.466 11.0957 14.4285 11.0957V11.7272ZM11.9185 9.21716C11.9185 10.6034 13.0423 11.7272 14.4285 11.7272V11.0957C13.3911 11.0957 12.55 10.2546 12.55 9.21716H11.9185ZM14.4285 6.70708C13.0423 6.70708 11.9185 7.83088 11.9185 9.21716H12.55C12.55 8.17969 13.3911 7.33866 14.4285 7.33866V6.70708ZM16.9386 9.21716C16.9386 7.83088 15.8148 6.70708 14.4285 6.70708V7.33866C15.466 7.33866 16.307 8.17969 16.307 9.21716H16.9386ZM12.4633 14.2913C12.4633 15.0996 11.8081 15.7548 10.9998 15.7548V16.3863C12.1569 16.3863 13.0948 15.4484 13.0948 14.2913H12.4633ZM10.9998 12.8279C11.8081 12.8279 12.4633 13.4831 12.4633 14.2913H13.0948C13.0948 13.1343 12.1569 12.1963 10.9998 12.1963V12.8279ZM9.53635 14.2913C9.53635 13.4831 10.1916 12.8279 10.9998 12.8279V12.1963C9.84275 12.1963 8.90477 13.1343 8.90477 14.2913H9.53635ZM10.9998 15.7548C10.1916 15.7548 9.53635 15.0996 9.53635 14.2913H8.90477C8.90477 15.4484 9.84275 16.3863 10.9998 16.3863V15.7548ZM12.7412 14.2913C12.7412 15.253 11.9615 16.0327 10.9998 16.0327V16.6642C12.3103 16.6642 13.3727 15.6018 13.3727 14.2913H12.7412ZM10.9998 12.55C11.9615 12.55 12.7412 13.3296 12.7412 14.2913H13.3727C13.3727 12.9808 12.3103 11.9184 10.9998 11.9184V12.55ZM9.25845 14.2913C9.25845 13.3296 10.0381 12.55 10.9998 12.55V11.9184C9.68927 11.9184 8.62688 12.9808 8.62688 14.2913H9.25845ZM10.9998 16.0327C10.0381 16.0327 9.25845 15.253 9.25845 14.2913H8.62688C8.62688 15.6018 9.68927 16.6642 10.9998 16.6642V16.0327ZM14.8399 14.7406C15.5425 14.7406 16.1121 14.1711 16.1121 13.4685H15.4805C15.4805 13.8222 15.1937 14.1091 14.8399 14.1091V14.7406ZM13.5678 13.4685C13.5678 14.1711 14.1373 14.7406 14.8399 14.7406V14.1091C14.4861 14.1091 14.1993 13.8222 14.1993 13.4685H13.5678ZM14.8399 12.1963C14.1373 12.1963 13.5678 12.7658 13.5678 13.4685H14.1993C14.1993 13.1147 14.4861 12.8279 14.8399 12.8279V12.1963ZM16.1121 13.4685C16.1121 12.7658 15.5425 12.1963 14.8399 12.1963V12.8279C15.1937 12.8279 15.4805 13.1147 15.4805 13.4685H16.1121ZM14.8399 15.0185C15.696 15.0185 16.39 14.3245 16.39 13.4685H15.7584C15.7584 13.9757 15.3472 14.387 14.8399 14.387V15.0185ZM13.2899 13.4685C13.2899 14.3245 13.9839 15.0185 14.8399 15.0185V14.387C14.3327 14.387 13.9214 13.9757 13.9214 13.4685H13.2899ZM14.8399 11.9184C13.9839 11.9184 13.2899 12.6124 13.2899 13.4685H13.9214C13.9214 12.9612 14.3327 12.55 14.8399 12.55V11.9184ZM16.39 13.4685C16.39 12.6124 15.696 11.9184 14.8399 11.9184V12.55C15.3472 12.55 15.7584 12.9612 15.7584 13.4685H16.39ZM7.80059 13.4685C7.80059 13.8222 7.51378 14.1091 7.15999 14.1091V14.7406C7.8626 14.7406 8.43217 14.1711 8.43217 13.4685H7.80059ZM7.15999 12.8279C7.51378 12.8279 7.80059 13.1147 7.80059 13.4685H8.43217C8.43217 12.7658 7.8626 12.1963 7.15999 12.1963V12.8279ZM6.51939 13.4685C6.51939 13.1147 6.8062 12.8279 7.15999 12.8279V12.1963C6.45738 12.1963 5.88781 12.7658 5.88781 13.4685H6.51939ZM7.15999 14.1091C6.8062 14.1091 6.51939 13.8222 6.51939 13.4685H5.88781C5.88781 14.1711 6.45738 14.7406 7.15999 14.7406V14.1091ZM8.07849 13.4685C8.07849 13.9757 7.66726 14.387 7.15999 14.387V15.0185C8.01607 15.0185 8.71006 14.3245 8.71006 13.4685H8.07849ZM7.15999 12.55C7.66726 12.55 8.07849 12.9612 8.07849 13.4685H8.71006C8.71006 12.6124 8.01607 11.9184 7.15999 11.9184V12.55ZM6.24149 13.4685C6.24149 12.9612 6.65272 12.55 7.15999 12.55V11.9184C6.30391 11.9184 5.60991 12.6124 5.60991 13.4685H6.24149ZM7.15999 14.387C6.65272 14.387 6.24149 13.9757 6.24149 13.4685H5.60991C5.60991 14.3245 6.30391 15.0185 7.15999 15.0185V14.387ZM11.9185 14.2915C11.9185 14.7987 11.5073 15.21 11 15.21V15.8415C11.8561 15.8415 12.5501 15.1475 12.5501 14.2915H11.9185ZM11 13.373C11.5073 13.373 11.9185 13.7842 11.9185 14.2915H12.5501C12.5501 13.4354 11.8561 12.7414 11 12.7414V13.373ZM10.0815 14.2915C10.0815 13.7842 10.4928 13.373 11 13.373V12.7414C10.144 12.7414 9.44996 13.4354 9.44996 14.2915H10.0815ZM11 15.21C10.4928 15.21 10.0815 14.7987 10.0815 14.2915H9.44996C9.44996 15.1475 10.144 15.8415 11 15.8415V15.21ZM14.84 14.47C15.3931 14.47 15.8415 14.0216 15.8415 13.4685H15.2099C15.2099 13.6728 15.0443 13.8384 14.84 13.8384V14.47ZM13.8385 13.4685C13.8385 14.0216 14.2869 14.47 14.84 14.47V13.8384C14.6357 13.8384 14.4701 13.6728 14.4701 13.4685H13.8385ZM14.84 12.467C14.2869 12.467 13.8385 12.9154 13.8385 13.4685H14.4701C14.4701 13.2642 14.6357 13.0986 14.84 13.0986V12.467ZM15.8415 13.4685C15.8415 12.9154 15.3931 12.467 14.84 12.467V13.0986C15.0443 13.0986 15.2099 13.2642 15.2099 13.4685H15.8415ZM7.52981 13.4685C7.52981 13.6728 7.36419 13.8384 7.15989 13.8384V14.47C7.713 14.47 8.16139 14.0216 8.16139 13.4685H7.52981ZM7.15989 13.0986C7.36419 13.0986 7.52981 13.2642 7.52981 13.4685H8.16139C8.16139 12.9154 7.713 12.467 7.15989 12.467V13.0986ZM6.78996 13.4685C6.78996 13.2642 6.95558 13.0986 7.15989 13.0986V12.467C6.60677 12.467 6.15838 12.9154 6.15838 13.4685H6.78996ZM7.15989 13.8384C6.95558 13.8384 6.78996 13.6728 6.78996 13.4685H6.15838C6.15838 14.0216 6.60677 14.47 7.15989 14.47V13.8384Z" fill="currentColor" mask="url(#path-1-inside-1_5953_44785)"></path></g></g></svg>